<svg xmlns="http://www.w3.org/2000/svg" width="32" height="32"><path d="M5.762 26.977a3.09 3.09 0 0 0 4.348 0l.612-.613c.546.277 1.107.513 1.689.702v.863A3.085 3.085 0 0 0 15.482 31h1.033c1.686 0 3.078-1.385 3.078-3.071v-.871a11.537 11.537 0 0 0 1.684-.694l.612.613a3.09 3.09 0 0 0 4.348 0l.738-.734a3.095 3.095 0 0 0 0-4.352l-.612-.605c.277-.546.513-1.108.701-1.69h.863c1.687 0 3.071-1.393 3.071-3.079v-1.033c0-1.686-1.386-3.078-3.071-3.078h-.871a11.586 11.586 0 0 0-.693-1.683l.612-.613a3.09 3.09 0 0 0 0-4.348l-.738-.738a3.09 3.09 0 0 0-4.348 0l-.612.612a11.715 11.715 0 0 0-1.684-.694v-.864A3.097 3.097 0 0 0 16.515 1h-1.033c-1.686 0-3.071 1.393-3.071 3.078v.856c-.582.189-1.145.424-1.689.701l-.612-.612a3.09 3.09 0 0 0-4.348 0l-.732.739a3.094 3.094 0 0 0 0 4.348l.605.613a11.699 11.699 0 0 0-.693 1.683h-.864a3.095 3.095 0 0 0-3.077 3.078v1.033a3.097 3.097 0 0 0 3.077 3.079h.864c.189.581.416 1.146.693 1.69l-.605.605a3.097 3.097 0 0 0 0 4.352l.732.734zm9.72-23.975h1.033c.612 0 1.078.465 1.078 1.078v1.521a1 1 0 0 0 .76.967 9.73 9.73 0 0 1 2.658 1.1 1 1 0 0 0 1.218-.148l1.078-1.078a1.053 1.053 0 0 1 1.521 0l.73.738c.433.433.433 1.08 0 1.513l-1.07 1.078a.999.999 0 0 0-.154 1.226 9.726 9.726 0 0 1 1.106 2.658c.113.442.511.752.967.753h1.521c.611 0 1.07.465 1.07 1.078v1.033c0 .612-.459 1.078-1.07 1.078h-1.521a1.001 1.001 0 0 0-.974.76 9.694 9.694 0 0 1-1.101 2.657c-.232.394-.17.896.154 1.218l1.07 1.078a1.053 1.053 0 0 1 0 1.521l-.73.731a1.053 1.053 0 0 1-1.521 0l-1.078-1.078a1 1 0 0 0-1.218-.147 9.755 9.755 0 0 1-2.658 1.1 1 1 0 0 0-.76.975v1.521a1.05 1.05 0 0 1-1.078 1.07H15.48a1.05 1.05 0 0 1-1.078-1.07v-1.521a1 1 0 0 0-.753-.975 9.723 9.723 0 0 1-2.657-1.1 1.001 1.001 0 0 0-1.226.147l-1.07 1.078a1.053 1.053 0 0 1-1.521 0l-.738-.731a1.053 1.053 0 0 1 0-1.521l1.078-1.078a1 1 0 0 0 .146-1.218 9.799 9.799 0 0 1-1.1-2.657 1 1 0 0 0-.975-.76H4.074a1.057 1.057 0 0 1-1.077-1.078v-1.033c0-.612.608-.883 1.077-1.078.469-.194 1.521 0 1.521 0 .457-.001.854-.311.968-.753a9.742 9.742 0 0 1 1.1-2.658 1.003 1.003 0 0 0-.146-1.226L6.438 8.693a1.044 1.044 0 0 1 0-1.513l.738-.738a1.045 1.045 0 0 1 1.514 0L9.768 7.52a1 1 0 0 0 1.226.148 9.749 9.749 0 0 1 2.657-1.1.999.999 0 0 0 .753-.974V4.08c0-.613.466-1.078 1.078-1.078zm.518 7.33c-3.118 0-5.662 2.552-5.662 5.669 0 3.117 2.544 5.669 5.662 5.669 3.117 0 5.669-2.552 5.669-5.669 0-3.117-2.552-5.669-5.669-5.669zm0 2a3.656 3.656 0 0 1 3.669 3.669A3.656 3.656 0 0 1 16 19.67a3.649 3.649 0 0 1-3.661-3.669A3.65 3.65 0 0 1 16 12.332z"/></svg>